<svg width="30" height="34" viewBox="0 0 30 34" fill="none" xmlns="http://www.w3.org/2000/svg">
<path fill-rule="evenodd" clip-rule="evenodd" d="M16.6667 0H11.6667C9.33333 0 7.41668 1.58333 6.83334 3.66666C6.25001 3.41666 5.66667 3.33333 5 3.33333H0V8.33333C0 9.08333 0.166672 9.83334 0.500005 10.5C0.166672 10.8333 0 11.25 0 11.6667V15C0 15.75 0.166672 16.5 0.500005 17.1667C0.166672 17.5 0 17.9167 0 18.3333V21.6667C0 24.4167 2.25 26.6667 5 26.6667H6.66667V33.3333H10V23.3333H11.6667C14.4167 23.3333 16.6667 21.0833 16.6667 18.3333V15C16.6667 14.5 16.5 14.0833 16.1667 13.8333C16.5 13.1667 16.6667 12.4167 16.6667 11.6667V8.33333C16.6667 7.83333 16.5 7.41667 16.1667 7.16667C16.5 6.50001 16.6667 5.75 16.6667 5V0ZM6.66667 23.3333H5C4.08333 23.3333 3.33333 22.5833 3.33333 21.6667V20H5C5.91667 20 6.66667 20.75 6.66667 21.6667V23.3333ZM6.66667 16.6667H5C4.08333 16.6667 3.33333 15.9167 3.33333 15V13.3333H5C5.91667 13.3333 6.66667 14.0833 6.66667 15V16.6667ZM6.66667 10H5C4.08333 10 3.33333 9.25 3.33333 8.33333V6.66667H5C5.91667 6.66667 6.66667 7.41667 6.66667 8.33333V10ZM13.3333 18.3333C13.3333 19.25 12.5833 20 11.6667 20H10V18.3333C10 17.4167 10.75 16.6667 11.6667 16.6667H13.3333V18.3333ZM13.3333 11.6667C13.3333 12.5833 12.5833 13.3333 11.6667 13.3333H10V11.6667C10 10.75 10.75 10 11.6667 10H13.3333V11.6667ZM13.3333 5C13.3333 5.91667 12.5833 6.66667 11.6667 6.66667H10V5C10 4.08333 10.75 3.33333 11.6667 3.33333H13.3333V5Z" fill="#F2D492"/>
<path fill-rule="evenodd" clip-rule="evenodd" d="M30 10H25C22.25 10 20 12.25 20 15V33.3333H23.3333V26.6667H25C27.75 26.6667 30 24.4167 30 21.6667V18.3333C30 17.8333 29.8333 17.4167 29.5 17.1667C29.8333 16.5 30 15.75 30 15V10ZM26.6667 21.6667C26.6667 22.5833 25.9167 23.3333 25 23.3333H23.3333V21.6667C23.3333 20.75 24.0833 20 25 20H26.6667V21.6667ZM26.6667 15C26.6667 15.9167 25.9167 16.6667 25 16.6667H23.3333V15C23.3333 14.0833 24.0833 13.3333 25 13.3333H26.6667V15Z" fill="#F2D492"/>
</svg>
