<svg width="219" height="34" viewBox="0 0 219 34" fill="none" xmlns="http://www.w3.org/2000/svg">
<path fill-rule="evenodd" clip-rule="evenodd" d="M16.6667 0H11.6667C9.33333 0 7.41668 1.58333 6.83334 3.66666C6.25001 3.41666 5.66667 3.33333 5 3.33333H0V8.33333C0 9.08333 0.166672 9.83334 0.500005 10.5C0.166672 10.8333 0 11.25 0 11.6667V15C0 15.75 0.166672 16.5 0.500005 17.1667C0.166672 17.5 0 17.9167 0 18.3333V21.6667C0 24.4167 2.25 26.6667 5 26.6667H6.66667V33.3333H10V23.3333H11.6667C14.4167 23.3333 16.6667 21.0833 16.6667 18.3333V15C16.6667 14.5 16.5 14.0833 16.1667 13.8333C16.5 13.1667 16.6667 12.4167 16.6667 11.6667V8.33333C16.6667 7.83333 16.5 7.41667 16.1667 7.16667C16.5 6.50001 16.6667 5.75 16.6667 5V0ZM6.66667 23.3333H5C4.08333 23.3333 3.33333 22.5833 3.33333 21.6667V20H5C5.91667 20 6.66667 20.75 6.66667 21.6667V23.3333ZM6.66667 16.6667H5C4.08333 16.6667 3.33333 15.9167 3.33333 15V13.3333H5C5.91667 13.3333 6.66667 14.0833 6.66667 15V16.6667ZM6.66667 10H5C4.08333 10 3.33333 9.25 3.33333 8.33333V6.66667H5C5.91667 6.66667 6.66667 7.41667 6.66667 8.33333V10ZM13.3333 18.3333C13.3333 19.25 12.5833 20 11.6667 20H10V18.3333C10 17.4167 10.75 16.6667 11.6667 16.6667H13.3333V18.3333ZM13.3333 11.6667C13.3333 12.5833 12.5833 13.3333 11.6667 13.3333H10V11.6667C10 10.75 10.75 10 11.6667 10H13.3333V11.6667ZM13.3333 5C13.3333 5.91667 12.5833 6.66667 11.6667 6.66667H10V5C10 4.08333 10.75 3.33333 11.6667 3.33333H13.3333V5Z" fill="#F2D492"/>
<path fill-rule="evenodd" clip-rule="evenodd" d="M30 10H25C22.25 10 20 12.25 20 15V33.3333H23.3333V26.6667H25C27.75 26.6667 30 24.4167 30 21.6667V18.3333C30 17.8333 29.8333 17.4167 29.5 17.1667C29.8333 16.5 30 15.75 30 15V10ZM26.6667 21.6667C26.6667 22.5833 25.9167 23.3333 25 23.3333H23.3333V21.6667C23.3333 20.75 24.0833 20 25 20H26.6667V21.6667ZM26.6667 15C26.6667 15.9167 25.9167 16.6667 25 16.6667H23.3333V15C23.3333 14.0833 24.0833 13.3333 25 13.3333H26.6667V15Z" fill="#F2D492"/>
<path d="M57.456 8.152V11.44H50.592V14.992H55.728V18.184H50.592V25H46.488V8.152H57.456Z" fill="#F2D492"/>
<path d="M58.797 18.28C58.797 16.904 59.053 15.696 59.565 14.656C60.093 13.616 60.805 12.816 61.701 12.256C62.597 11.696 63.597 11.416 64.701 11.416C65.645 11.416 66.469 11.608 67.173 11.992C67.893 12.376 68.445 12.88 68.829 13.504V11.608H72.933V25H68.829V23.104C68.429 23.728 67.869 24.232 67.149 24.616C66.445 25 65.621 25.192 64.677 25.192C63.589 25.192 62.597 24.912 61.701 24.352C60.805 23.776 60.093 22.968 59.565 21.928C59.053 20.872 58.797 19.656 58.797 18.28ZM68.829 18.304C68.829 17.28 68.541 16.472 67.965 15.88C67.405 15.288 66.717 14.992 65.901 14.992C65.085 14.992 64.389 15.288 63.813 15.88C63.253 16.456 62.973 17.256 62.973 18.28C62.973 19.304 63.253 20.12 63.813 20.728C64.389 21.32 65.085 21.616 65.901 21.616C66.717 21.616 67.405 21.32 67.965 20.728C68.541 20.136 68.829 19.328 68.829 18.304Z" fill="#F2D492"/>
<path d="M89.1261 11.608V25H85.0221V23.176C84.6061 23.768 84.0381 24.248 83.3181 24.616C82.6141 24.968 81.8301 25.144 80.9661 25.144C79.9421 25.144 79.0381 24.92 78.2541 24.472C77.4701 24.008 76.8621 23.344 76.4301 22.48C75.9981 21.616 75.7821 20.6 75.7821 19.432V11.608H79.8621V18.88C79.8621 19.776 80.0941 20.472 80.5581 20.968C81.0221 21.464 81.6461 21.712 82.4301 21.712C83.2301 21.712 83.8621 21.464 84.3261 20.968C84.7901 20.472 85.0221 19.776 85.0221 18.88V11.608H89.1261Z" fill="#F2D492"/>
<path d="M100.234 11.464C101.802 11.464 103.05 11.976 103.978 13C104.922 14.008 105.394 15.4 105.394 17.176V25H101.314V17.728C101.314 16.832 101.082 16.136 100.618 15.64C100.154 15.144 99.5299 14.896 98.7459 14.896C97.9619 14.896 97.3379 15.144 96.8739 15.64C96.4099 16.136 96.1779 16.832 96.1779 17.728V25H92.0739V11.608H96.1779V13.384C96.5939 12.792 97.1539 12.328 97.8579 11.992C98.5619 11.64 99.3539 11.464 100.234 11.464Z" fill="#F2D492"/>
<path d="M107.43 18.28C107.43 16.904 107.686 15.696 108.198 14.656C108.726 13.616 109.438 12.816 110.334 12.256C111.23 11.696 112.23 11.416 113.334 11.416C114.278 11.416 115.102 11.608 115.806 11.992C116.526 12.376 117.078 12.88 117.462 13.504V11.608H121.566V25H117.462V23.104C117.062 23.728 116.502 24.232 115.782 24.616C115.078 25 114.254 25.192 113.31 25.192C112.222 25.192 111.23 24.912 110.334 24.352C109.438 23.776 108.726 22.968 108.198 21.928C107.686 20.872 107.43 19.656 107.43 18.28ZM117.462 18.304C117.462 17.28 117.174 16.472 116.598 15.88C116.038 15.288 115.35 14.992 114.534 14.992C113.718 14.992 113.022 15.288 112.446 15.88C111.886 16.456 111.606 17.256 111.606 18.28C111.606 19.304 111.886 20.12 112.446 20.728C113.022 21.32 113.718 21.616 114.534 21.616C115.35 21.616 116.038 21.32 116.598 20.728C117.174 20.136 117.462 19.328 117.462 18.304Z" fill="#F2D492"/>
<path d="M142.245 18.088C142.245 18.472 142.221 18.872 142.173 19.288H132.885C132.949 20.12 133.213 20.76 133.677 21.208C134.157 21.64 134.741 21.856 135.429 21.856C136.453 21.856 137.165 21.424 137.565 20.56H141.933C141.709 21.44 141.301 22.232 140.709 22.936C140.133 23.64 139.405 24.192 138.525 24.592C137.645 24.992 136.661 25.192 135.573 25.192C134.261 25.192 133.093 24.912 132.069 24.352C131.045 23.792 130.245 22.992 129.669 21.952C129.093 20.912 128.805 19.696 128.805 18.304C128.805 16.912 129.085 15.696 129.645 14.656C130.221 13.616 131.021 12.816 132.045 12.256C133.069 11.696 134.245 11.416 135.573 11.416C136.869 11.416 138.021 11.688 139.029 12.232C140.037 12.776 140.821 13.552 141.381 14.56C141.957 15.568 142.245 16.744 142.245 18.088ZM138.045 17.008C138.045 16.304 137.805 15.744 137.325 15.328C136.845 14.912 136.245 14.704 135.525 14.704C134.837 14.704 134.253 14.904 133.773 15.304C133.309 15.704 133.021 16.272 132.909 17.008H138.045Z" fill="#F2D492"/>
<path d="M151.874 21.52V25H149.786C148.298 25 147.138 24.64 146.306 23.92C145.474 23.184 145.058 21.992 145.058 20.344V15.016H143.426V11.608H145.058V8.344H149.162V11.608H151.85V15.016H149.162V20.392C149.162 20.792 149.258 21.08 149.45 21.256C149.642 21.432 149.962 21.52 150.41 21.52H151.874Z" fill="#F2D492"/>
<path d="M170.214 8.152V11.44H163.35V14.992H168.486V18.184H163.35V25H159.246V8.152H170.214Z" fill="#F2D492"/>
<path d="M176.475 7.24V25H172.371V7.24H176.475Z" fill="#F2D492"/>
<path d="M185.545 25.192C184.233 25.192 183.049 24.912 181.993 24.352C180.953 23.792 180.129 22.992 179.521 21.952C178.929 20.912 178.633 19.696 178.633 18.304C178.633 16.928 178.937 15.72 179.545 14.68C180.153 13.624 180.985 12.816 182.041 12.256C183.097 11.696 184.281 11.416 185.593 11.416C186.905 11.416 188.089 11.696 189.145 12.256C190.201 12.816 191.033 13.624 191.641 14.68C192.249 15.72 192.553 16.928 192.553 18.304C192.553 19.68 192.241 20.896 191.617 21.952C191.009 22.992 190.169 23.792 189.097 24.352C188.041 24.912 186.857 25.192 185.545 25.192ZM185.545 21.64C186.329 21.64 186.993 21.352 187.537 20.776C188.097 20.2 188.377 19.376 188.377 18.304C188.377 17.232 188.105 16.408 187.561 15.832C187.033 15.256 186.377 14.968 185.593 14.968C184.793 14.968 184.129 15.256 183.601 15.832C183.073 16.392 182.809 17.216 182.809 18.304C182.809 19.376 183.065 20.2 183.577 20.776C184.105 21.352 184.761 21.64 185.545 21.64Z" fill="#F2D492"/>
<path d="M198.834 13.84C199.314 13.104 199.914 12.528 200.634 12.112C201.354 11.68 202.154 11.464 203.034 11.464V15.808H201.906C200.882 15.808 200.114 16.032 199.602 16.48C199.09 16.912 198.834 17.68 198.834 18.784V25H194.73V11.608H198.834V13.84Z" fill="#F2D492"/>
<path d="M204.18 18.28C204.18 16.904 204.436 15.696 204.948 14.656C205.476 13.616 206.188 12.816 207.084 12.256C207.98 11.696 208.98 11.416 210.084 11.416C211.028 11.416 211.852 11.608 212.556 11.992C213.276 12.376 213.828 12.88 214.212 13.504V11.608H218.316V25H214.212V23.104C213.812 23.728 213.252 24.232 212.532 24.616C211.828 25 211.004 25.192 210.06 25.192C208.972 25.192 207.98 24.912 207.084 24.352C206.188 23.776 205.476 22.968 204.948 21.928C204.436 20.872 204.18 19.656 204.18 18.28ZM214.212 18.304C214.212 17.28 213.924 16.472 213.348 15.88C212.788 15.288 212.1 14.992 211.284 14.992C210.468 14.992 209.772 15.288 209.196 15.88C208.636 16.456 208.356 17.256 208.356 18.28C208.356 19.304 208.636 20.12 209.196 20.728C209.772 21.32 210.468 21.616 211.284 21.616C212.1 21.616 212.788 21.32 213.348 20.728C213.924 20.136 214.212 19.328 214.212 18.304Z" fill="#F2D492"/>
</svg>
